<?xml version="1.0" standalone="no"?>
<!DOCTYPE svg PUBLIC "-//W3C//DTD SVG 20010904//EN"
 "http://www.w3.org/TR/2001/REC-SVG-20010904/DTD/svg10.dtd">
<svg version="1.0" xmlns="http://www.w3.org/2000/svg"
 width="2.8rem" height="2.8rem" viewBox="0 0 32.000000 32.000000"
 preserveAspectRatio="xMidYMid meet">

<g transform="translate(0.000000,32.000000) scale(0.100000,-0.100000)"
fill=" #b0b3b8" stroke="none">
<path d="M100 273 c-95 -49 -87 -193 13 -232 105 -40 206 61 166 166 -27 70
-111 101 -179 66z m110 -18 c32 -17 60 -61 60 -95 0 -53 -57 -110 -110 -110
-53 0 -110 57 -110 110 0 33 28 78 58 94 35 20 66 20 102 1z"/>
<path d="M125 223 c-12 -11 -15 -25 -11 -45 4 -19 0 -38 -10 -54 -9 -13 -13
-28 -9 -32 4 -4 10 -1 12 6 8 21 34 42 53 42 19 0 45 -21 53 -42 2 -7 8 -10
12 -6 4 4 0 19 -9 32 -10 16 -14 35 -10 54 7 32 -15 62 -46 62 -10 0 -26 -7
-35 -17z m60 -33 c0 -18 -6 -26 -23 -28 -13 -2 -25 3 -28 12 -10 26 4 48 28
44 17 -2 23 -10 23 -28z"/>
</g>
</svg>
