<?xml version="1.0" encoding="utf-8"?>
<!-- Generator: Adobe Illustrator 26.0.1, SVG Export Plug-In . SVG Version: 6.00 Build 0)  -->
<svg version="1.1" id="Layer_1" xmlns="http://www.w3.org/2000/svg" xmlns:xlink="http://www.w3.org/1999/xlink" x="0px" y="0px"
	 viewBox="0 0 612 792" style="enable-background:new 0 0 612 792;" xml:space="preserve">
<style type="text/css">
	.st0{stroke:#B1B3B8;stroke-width:3;stroke-miterlimit:10;}
</style>
<g>
	<path class="st0" d="M351.38,426.81h-30.25v-22.69c0-8.33-6.79-15.13-15.12-15.13h-11.34c-2.09,0-3.78,1.69-3.78,3.78v17.9
		l-14.63,25.61c-0.33,0.56-0.5,1.21-0.5,1.86v52.94c0,2.09,1.69,3.78,3.78,3.78h60.67c6,0,11.4-3.52,13.83-8.98l12.14-27.29
		c0.2-0.47,0.32-1.01,0.32-1.53v-15.13C366.5,433.6,359.71,426.81,351.38,426.81L351.38,426.81z M351.38,426.81"/>
	<path class="st0" d="M245.5,438.16v52.94c0,2.09,1.69,3.78,3.78,3.78h18.91v-60.5h-18.91C247.19,434.38,245.5,436.06,245.5,438.16
		L245.5,438.16z M245.5,438.16"/>
</g>
</svg>
