<?xml version="1.0" standalone="no"?>
<!DOCTYPE svg PUBLIC "-//W3C//DTD SVG 20010904//EN"
 "http://www.w3.org/TR/2001/REC-SVG-20010904/DTD/svg10.dtd">
<svg version="1.0" xmlns="http://www.w3.org/2000/svg"
 width="2.8rem" height="2.8rem" viewBox="0 0 512.000000 512.000000"
 preserveAspectRatio="xMidYMid meet">

<g transform="translate(0.000000,512.000000) scale(0.100000,-0.100000)"
fill=" #b0b3b8" stroke="none">
<path d="M380 4901 c-19 -10 -43 -29 -53 -43 -23 -31 -292 -1028 -312 -1158
-20 -131 -20 -558 0 -655 38 -180 169 -351 334 -433 46 -23 89 -42 97 -42 11
0 14 -158 17 -932 3 -1028 0 -968 66 -1103 78 -156 248 -288 419 -324 38 -8
506 -11 1615 -11 1740 0 1623 -4 1767 71 138 71 245 199 298 353 l27 81 3 933
c2 774 5 932 16 932 8 0 51 19 97 42 165 82 296 253 334 433 20 97 20 524 0
655 -20 130 -289 1127 -312 1158 -10 14 -34 33 -53 43 -33 18 -111 19 -2180
19 -2069 0 -2147 -1 -2180 -19z m4260 -666 c53 -198 100 -372 104 -387 l6 -28
-2190 0 c-1204 0 -2190 1 -2190 3 0 5 200 752 205 765 3 10 406 12 1987 10
l1982 -3 96 -360z m-3682 -937 c-3 -192 -4 -206 -28 -253 -31 -64 -92 -124
-155 -156 -72 -35 -198 -35 -270 0 -63 32 -124 92 -155 156 -24 47 -25 61 -28
253 l-3 202 321 0 321 0 -3 -202z m960 0 c-3 -192 -4 -206 -28 -253 -31 -64
-92 -124 -155 -156 -72 -35 -198 -35 -270 0 -63 32 -124 92 -155 156 -24 47
-25 61 -28 253 l-3 202 321 0 321 0 -3 -202z m960 0 c-3 -192 -4 -206 -28
-253 -31 -64 -92 -124 -155 -156 -72 -35 -198 -35 -270 0 -63 32 -124 92 -155
156 -24 47 -25 61 -28 253 l-3 202 321 0 321 0 -3 -202z m960 0 c-3 -192 -4
-206 -28 -253 -31 -64 -92 -124 -155 -156 -72 -35 -198 -35 -270 0 -63 32
-124 92 -155 156 -24 47 -25 61 -28 253 l-3 202 321 0 321 0 -3 -202z m960 0
c-3 -192 -4 -206 -28 -253 -31 -64 -92 -124 -155 -156 -72 -35 -198 -35 -270
0 -63 32 -124 92 -155 156 -24 47 -25 61 -28 253 l-3 202 321 0 321 0 -3 -202z
m-3621 -598 c238 -211 608 -211 847 1 l56 51 56 -51 c239 -212 609 -212 848 0
l56 51 56 -51 c239 -212 609 -212 848 0 l56 51 56 -50 c61 -55 145 -103 227
-131 l52 -18 0 -904 0 -904 -24 -53 c-14 -31 -43 -70 -72 -96 -84 -76 -85 -76
-576 -76 l-433 0 0 588 c0 464 -3 598 -14 638 -48 181 -208 329 -391 363 -76
14 -453 14 -531 0 -180 -32 -342 -183 -390 -364 -11 -39 -14 -179 -14 -637 l0
-588 -433 0 c-491 0 -492 0 -576 76 -29 26 -58 65 -72 96 l-24 53 0 904 0 904
52 18 c82 28 166 76 225 129 29 27 55 49 56 50 2 0 29 -22 59 -50z m1621 -915
c20 -9 47 -26 60 -38 53 -49 52 -33 52 -652 l0 -575 -350 0 -350 0 0 575 c0
619 -1 603 52 652 50 47 80 52 296 53 161 0 210 -3 240 -15z"/>
</g>
</svg>
