<?xml version="1.0" ?><svg style="enable-background:new 0 0 48 48;" version="1.1" viewBox="0 0 48 48" xml:space="preserve" xmlns="http://www.w3.org/2000/svg" xmlns:xlink="http://www.w3.org/1999/xlink"><style type="text/css">
	.st0{display:none;}
	.st1{fill:none;stroke:#303030;stroke-width:0.7;stroke-linecap:round;stroke-linejoin:round;stroke-miterlimit:10;}
	.st2{fill:#303030;}
</style><g class="st0" id="Padding__x26__Artboard"/><g id="Icons"><g><path class="st1" d="M20.68555,13.85369c1.5017-0.21735,2.98363,0.03952,4.3075,0.63229    c1.91664,0.84964,3.49737,2.39086,4.3075,4.50509l1.32386,3.4381"/><path class="st1" d="M17.01035,15.2566c-2.98363,2.11423-4.26798,6.02655-2.9046,9.56344l1.32386,3.45786"/><path class="st1" d="M15.88954,22.43296c0.0064,0.38461,0.04606,0.77179,0.12069,1.15766"/><path class="st1" d="M18.75451,16.79278c-0.4976,0.35261-0.93833,0.76539-1.31581,1.22376    c-0.6281,0.76268-1.08109,1.65156-1.32965,2.59939"/><line class="st1" x1="33.13881" x2="17.94224" y1="28.98088" y2="34.82495"/><path class="st1" d="M17.00397,15.2649l-0.11348-0.29508c-0.39008-1.01433,0.12068-2.1634,1.13501-2.55348    c1.01433-0.39008,2.1634,0.12068,2.55348,1.13501l0.11348,0.29508"/><path class="st1" d="M15.4299,28.28c0.47,1.24,0.51597,2.57274,0.17597,3.99274l0,0    c-0.29226,0.45111-0.38449,1.037-0.17172,1.59027c0.35462,0.92212,1.40154,1.38748,2.32366,1.03286l0.18443-0.07092    l15.19658-5.84407l0.14754-0.05674c0.92212-0.35462,1.38748-1.40154,1.03286-2.32366    c-0.0922-0.23975-0.22554-0.42134-0.37733-0.59584c-0.20285-0.1972-0.4355-0.36177-0.7022-0.44973l-0.03335-0.0115    c-1.22-0.83-2.09644-1.8534-2.57644-3.1134"/><path class="st1" d="M24.63685,32.25044c0.48937,1.27253-0.16468,2.70957-1.43721,3.19894l-0.25819,0.09929    c-1.27253,0.48937-2.72092-0.13914-3.21029-1.41167"/></g></g></svg>